<mxfile host="app.diagrams.net" modified="2022-12-30T07:29:54.175Z" agent="5.0 (Macintosh; Intel Mac OS X 10_15_7) AppleWebKit/537.36 (KHTML, like Gecko) Chrome/108.0.0.0 Safari/537.36" version="20.7.4" etag="dx1iBA_TDGGTDhV7_RiJ" type="github">
  <diagram id="fvKM5-ZGO-roIB81G2cB" name="第 1 页">
    <mxGraphModel dx="2074" dy="1106" grid="1" gridSize="10" guides="1" tooltips="1" connect="1" arrows="1" fold="1" page="1" pageScale="1" pageWidth="827" pageHeight="1169" math="0" shadow="0">
      <root>
        <mxCell id="0" />
        <mxCell id="1" parent="0" />
        <mxCell id="Cm4apO4eyMY5CgvIglGU-10" style="edgeStyle=orthogonalEdgeStyle;rounded=0;orthogonalLoop=1;jettySize=auto;html=1;entryX=0.5;entryY=0;entryDx=0;entryDy=0;" edge="1" parent="1" source="Cm4apO4eyMY5CgvIglGU-1" target="Cm4apO4eyMY5CgvIglGU-8">
          <mxGeometry relative="1" as="geometry" />
        </mxCell>
        <mxCell id="Cm4apO4eyMY5CgvIglGU-1" value="" style="sketch=0;aspect=fixed;pointerEvents=1;shadow=0;dashed=0;html=1;strokeColor=none;labelPosition=center;verticalLabelPosition=bottom;verticalAlign=top;align=center;fillColor=#00188D;shape=mxgraph.azure.computer" vertex="1" parent="1">
          <mxGeometry x="210" y="22.5" width="50" height="45" as="geometry" />
        </mxCell>
        <mxCell id="Cm4apO4eyMY5CgvIglGU-11" style="edgeStyle=orthogonalEdgeStyle;rounded=0;orthogonalLoop=1;jettySize=auto;html=1;entryX=0.5;entryY=0;entryDx=0;entryDy=0;" edge="1" parent="1" source="Cm4apO4eyMY5CgvIglGU-7" target="Cm4apO4eyMY5CgvIglGU-8">
          <mxGeometry relative="1" as="geometry" />
        </mxCell>
        <mxCell id="Cm4apO4eyMY5CgvIglGU-7" value="" style="html=1;verticalLabelPosition=bottom;align=center;labelBackgroundColor=#ffffff;verticalAlign=top;strokeWidth=2;strokeColor=#0080F0;shadow=0;dashed=0;shape=mxgraph.ios7.icons.smartphone;" vertex="1" parent="1">
          <mxGeometry x="440" y="20" width="30" height="50" as="geometry" />
        </mxCell>
        <mxCell id="Cm4apO4eyMY5CgvIglGU-14" style="edgeStyle=orthogonalEdgeStyle;rounded=0;orthogonalLoop=1;jettySize=auto;html=1;entryX=0.375;entryY=0;entryDx=0;entryDy=0;entryPerimeter=0;" edge="1" parent="1" source="Cm4apO4eyMY5CgvIglGU-8" target="Cm4apO4eyMY5CgvIglGU-13">
          <mxGeometry relative="1" as="geometry" />
        </mxCell>
        <mxCell id="Cm4apO4eyMY5CgvIglGU-8" value="" style="aspect=fixed;perimeter=ellipsePerimeter;html=1;align=center;shadow=0;dashed=0;spacingTop=3;image;image=img/lib/active_directory/internet_cloud.svg;" vertex="1" parent="1">
          <mxGeometry x="310" y="105" width="90" height="56.7" as="geometry" />
        </mxCell>
        <mxCell id="Cm4apO4eyMY5CgvIglGU-20" value="" style="edgeStyle=orthogonalEdgeStyle;rounded=0;orthogonalLoop=1;jettySize=auto;html=1;exitX=0.5;exitY=1;exitDx=0;exitDy=0;" edge="1" parent="1" source="Cm4apO4eyMY5CgvIglGU-23" target="Cm4apO4eyMY5CgvIglGU-15">
          <mxGeometry relative="1" as="geometry" />
        </mxCell>
        <mxCell id="Cm4apO4eyMY5CgvIglGU-21" style="edgeStyle=orthogonalEdgeStyle;rounded=0;orthogonalLoop=1;jettySize=auto;html=1;" edge="1" parent="1" target="Cm4apO4eyMY5CgvIglGU-17">
          <mxGeometry relative="1" as="geometry">
            <mxPoint x="293" y="345" as="sourcePoint" />
          </mxGeometry>
        </mxCell>
        <mxCell id="Cm4apO4eyMY5CgvIglGU-22" style="edgeStyle=orthogonalEdgeStyle;rounded=0;orthogonalLoop=1;jettySize=auto;html=1;entryX=0.5;entryY=0;entryDx=0;entryDy=0;exitX=1;exitY=0.5;exitDx=0;exitDy=0;" edge="1" parent="1" source="Cm4apO4eyMY5CgvIglGU-23" target="Cm4apO4eyMY5CgvIglGU-16">
          <mxGeometry relative="1" as="geometry" />
        </mxCell>
        <mxCell id="Cm4apO4eyMY5CgvIglGU-24" value="" style="edgeStyle=orthogonalEdgeStyle;rounded=0;orthogonalLoop=1;jettySize=auto;html=1;" edge="1" parent="1" source="Cm4apO4eyMY5CgvIglGU-13" target="Cm4apO4eyMY5CgvIglGU-23">
          <mxGeometry relative="1" as="geometry" />
        </mxCell>
        <mxCell id="Cm4apO4eyMY5CgvIglGU-13" value="" style="aspect=fixed;html=1;points=[];align=center;image;fontSize=12;image=img/lib/azure2/networking/Azure_Firewall_Manager.svg;" vertex="1" parent="1">
          <mxGeometry x="328" y="214" width="70" height="60" as="geometry" />
        </mxCell>
        <mxCell id="Cm4apO4eyMY5CgvIglGU-33" value="" style="edgeStyle=orthogonalEdgeStyle;rounded=0;orthogonalLoop=1;jettySize=auto;html=1;" edge="1" parent="1" source="Cm4apO4eyMY5CgvIglGU-15" target="Cm4apO4eyMY5CgvIglGU-25">
          <mxGeometry relative="1" as="geometry" />
        </mxCell>
        <mxCell id="Cm4apO4eyMY5CgvIglGU-15" value="" style="image;html=1;image=img/lib/clip_art/computers/Server_128x128.png" vertex="1" parent="1">
          <mxGeometry x="323" y="400" width="80" height="70" as="geometry" />
        </mxCell>
        <mxCell id="Cm4apO4eyMY5CgvIglGU-16" value="" style="image;html=1;image=img/lib/clip_art/computers/Server_128x128.png" vertex="1" parent="1">
          <mxGeometry x="463" y="390" width="80" height="80" as="geometry" />
        </mxCell>
        <mxCell id="Cm4apO4eyMY5CgvIglGU-17" value="" style="image;html=1;image=img/lib/clip_art/computers/Server_128x128.png" vertex="1" parent="1">
          <mxGeometry x="143" y="390" width="80" height="80" as="geometry" />
        </mxCell>
        <mxCell id="Cm4apO4eyMY5CgvIglGU-23" value="gateway" style="rounded=0;whiteSpace=wrap;html=1;" vertex="1" parent="1">
          <mxGeometry x="303" y="315" width="120" height="60" as="geometry" />
        </mxCell>
        <mxCell id="Cm4apO4eyMY5CgvIglGU-34" style="edgeStyle=orthogonalEdgeStyle;rounded=0;orthogonalLoop=1;jettySize=auto;html=1;entryX=0.5;entryY=0;entryDx=0;entryDy=0;" edge="1" parent="1" source="Cm4apO4eyMY5CgvIglGU-25" target="Cm4apO4eyMY5CgvIglGU-29">
          <mxGeometry relative="1" as="geometry" />
        </mxCell>
        <mxCell id="Cm4apO4eyMY5CgvIglGU-25" value="拦截所有数据库操作（表名和操作类型），获取业务数据信息，比如生成数据的ID、用户ID" style="rounded=0;whiteSpace=wrap;html=1;" vertex="1" parent="1">
          <mxGeometry x="279.5" y="500" width="167" height="65" as="geometry" />
        </mxCell>
        <mxCell id="Cm4apO4eyMY5CgvIglGU-39" style="edgeStyle=orthogonalEdgeStyle;rounded=0;orthogonalLoop=1;jettySize=auto;html=1;exitX=0.5;exitY=1;exitDx=0;exitDy=0;entryX=0.5;entryY=0;entryDx=0;entryDy=0;" edge="1" parent="1" source="Cm4apO4eyMY5CgvIglGU-26" target="Cm4apO4eyMY5CgvIglGU-32">
          <mxGeometry relative="1" as="geometry">
            <mxPoint x="60" y="763" as="targetPoint" />
          </mxGeometry>
        </mxCell>
        <mxCell id="Cm4apO4eyMY5CgvIglGU-26" value="保存所有请求的url、请求方法、数据id信息、用户ID信息等，抽象出积分规则入参" style="rounded=0;whiteSpace=wrap;html=1;" vertex="1" parent="1">
          <mxGeometry x="223" y="700" width="286" height="70" as="geometry" />
        </mxCell>
        <mxCell id="Cm4apO4eyMY5CgvIglGU-40" style="edgeStyle=orthogonalEdgeStyle;rounded=0;orthogonalLoop=1;jettySize=auto;html=1;exitX=0.5;exitY=1;exitDx=0;exitDy=0;entryX=0.5;entryY=0;entryDx=0;entryDy=0;" edge="1" parent="1" source="Cm4apO4eyMY5CgvIglGU-27" target="Cm4apO4eyMY5CgvIglGU-28">
          <mxGeometry relative="1" as="geometry" />
        </mxCell>
        <mxCell id="Cm4apO4eyMY5CgvIglGU-27" value="根据url和请求方法&lt;br&gt;配置积分规则" style="rounded=0;whiteSpace=wrap;html=1;" vertex="1" parent="1">
          <mxGeometry x="130" y="870" width="120" height="60" as="geometry" />
        </mxCell>
        <mxCell id="Cm4apO4eyMY5CgvIglGU-44" style="edgeStyle=orthogonalEdgeStyle;rounded=0;orthogonalLoop=1;jettySize=auto;html=1;exitX=0.5;exitY=1;exitDx=0;exitDy=0;" edge="1" parent="1" source="Cm4apO4eyMY5CgvIglGU-28" target="Cm4apO4eyMY5CgvIglGU-41">
          <mxGeometry relative="1" as="geometry" />
        </mxCell>
        <mxCell id="Cm4apO4eyMY5CgvIglGU-28" value="动态推送规则到drools" style="rounded=0;whiteSpace=wrap;html=1;" vertex="1" parent="1">
          <mxGeometry x="130" y="960" width="120" height="60" as="geometry" />
        </mxCell>
        <mxCell id="Cm4apO4eyMY5CgvIglGU-36" value="" style="edgeStyle=orthogonalEdgeStyle;rounded=0;orthogonalLoop=1;jettySize=auto;html=1;" edge="1" parent="1" source="Cm4apO4eyMY5CgvIglGU-29">
          <mxGeometry relative="1" as="geometry">
            <mxPoint x="363" y="700" as="targetPoint" />
          </mxGeometry>
        </mxCell>
        <mxCell id="Cm4apO4eyMY5CgvIglGU-29" value="drools加载积分规则" style="rounded=0;whiteSpace=wrap;html=1;" vertex="1" parent="1">
          <mxGeometry x="303" y="605" width="120" height="60" as="geometry" />
        </mxCell>
        <mxCell id="Cm4apO4eyMY5CgvIglGU-43" style="edgeStyle=orthogonalEdgeStyle;rounded=0;orthogonalLoop=1;jettySize=auto;html=1;entryX=0.5;entryY=0;entryDx=0;entryDy=0;" edge="1" parent="1" source="Cm4apO4eyMY5CgvIglGU-31" target="Cm4apO4eyMY5CgvIglGU-42">
          <mxGeometry relative="1" as="geometry" />
        </mxCell>
        <mxCell id="Cm4apO4eyMY5CgvIglGU-31" value="根据积分规则，给予用户积分" style="rounded=0;whiteSpace=wrap;html=1;" vertex="1" parent="1">
          <mxGeometry x="470" y="880" width="120" height="55" as="geometry" />
        </mxCell>
        <mxCell id="Cm4apO4eyMY5CgvIglGU-37" style="edgeStyle=orthogonalEdgeStyle;rounded=0;orthogonalLoop=1;jettySize=auto;html=1;entryX=0.5;entryY=0;entryDx=0;entryDy=0;" edge="1" parent="1" source="Cm4apO4eyMY5CgvIglGU-32" target="Cm4apO4eyMY5CgvIglGU-31">
          <mxGeometry relative="1" as="geometry" />
        </mxCell>
        <mxCell id="Cm4apO4eyMY5CgvIglGU-38" style="edgeStyle=orthogonalEdgeStyle;rounded=0;orthogonalLoop=1;jettySize=auto;html=1;entryX=0.5;entryY=0;entryDx=0;entryDy=0;" edge="1" parent="1" source="Cm4apO4eyMY5CgvIglGU-32" target="Cm4apO4eyMY5CgvIglGU-27">
          <mxGeometry relative="1" as="geometry" />
        </mxCell>
        <mxCell id="Cm4apO4eyMY5CgvIglGU-32" value="存在于规则中" style="rhombus;whiteSpace=wrap;html=1;" vertex="1" parent="1">
          <mxGeometry x="319" y="800" width="72" height="80" as="geometry" />
        </mxCell>
        <mxCell id="Cm4apO4eyMY5CgvIglGU-41" value="结束" style="rounded=0;whiteSpace=wrap;html=1;" vertex="1" parent="1">
          <mxGeometry x="283" y="1100" width="120" height="60" as="geometry" />
        </mxCell>
        <mxCell id="Cm4apO4eyMY5CgvIglGU-45" style="edgeStyle=orthogonalEdgeStyle;rounded=0;orthogonalLoop=1;jettySize=auto;html=1;entryX=0.5;entryY=0;entryDx=0;entryDy=0;" edge="1" parent="1">
          <mxGeometry relative="1" as="geometry">
            <mxPoint x="530" y="930" as="sourcePoint" />
            <mxPoint x="343" y="1100" as="targetPoint" />
            <Array as="points">
              <mxPoint x="530" y="1060" />
              <mxPoint x="343" y="1060" />
            </Array>
          </mxGeometry>
        </mxCell>
        <mxCell id="Cm4apO4eyMY5CgvIglGU-42" value="保存积分获取历史记录" style="rounded=0;whiteSpace=wrap;html=1;" vertex="1" parent="1">
          <mxGeometry x="470" y="970" width="120" height="50" as="geometry" />
        </mxCell>
        <mxCell id="Cm4apO4eyMY5CgvIglGU-48" value="是" style="text;strokeColor=none;align=center;fillColor=none;html=1;verticalAlign=middle;whiteSpace=wrap;rounded=0;" vertex="1" parent="1">
          <mxGeometry x="403" y="817" width="60" height="30" as="geometry" />
        </mxCell>
        <mxCell id="Cm4apO4eyMY5CgvIglGU-50" value="否" style="text;strokeColor=none;align=center;fillColor=none;html=1;verticalAlign=middle;whiteSpace=wrap;rounded=0;" vertex="1" parent="1">
          <mxGeometry x="230" y="817" width="60" height="30" as="geometry" />
        </mxCell>
      </root>
    </mxGraphModel>
  </diagram>
</mxfile>
